<?xml version="1.0" encoding="UTF-8"?>
<!DOCTYPE svg PUBLIC "-//W3C//DTD SVG 1.1//EN" "http://www.w3.org/Graphics/SVG/1.1/DTD/svg11.dtd">
<!-- Creator: CorelDRAW X5 -->
<svg xmlns="http://www.w3.org/2000/svg" xml:space="preserve" width="210mm" height="97.999mm" style="shape-rendering:geometricPrecision; text-rendering:geometricPrecision; image-rendering:optimizeQuality; fill-rule:evenodd; clip-rule:evenodd"
viewBox="0 0 21000 9800"
 xmlns:xlink="http://www.w3.org/1999/xlink">
 <defs>
  <style type="text/css">
   <![CDATA[
    .fil0 {fill:#08666B;fill-rule:nonzero}
    .fil4 {fill:#0D4E82;fill-rule:nonzero}
    .fil5 {fill:#2882C5;fill-rule:nonzero}
    .fil6 {fill:#47AC49;fill-rule:nonzero}
    .fil1 {fill:#BE432C;fill-rule:nonzero}
    .fil3 {fill:#E84538;fill-rule:nonzero}
    .fil2 {fill:#FBC800;fill-rule:nonzero}
   ]]>
  </style>
 </defs>
 <g id="__x0023_Layer_x0020_1">
  <metadata id="CorelCorpID_0Corel-Layer"/>
  <path class="fil0" d="M1914 5438c0,0 1583,1754 3105,2067 0,0 1015,176 1643,-688 0,0 -1620,328 -2990,-798l-1758 -581z"/>
  <path class="fil1" d="M2394 6295c0,0 301,2125 1851,2536 0,0 737,32 1293,-330 0,0 -1981,-215 -2311,-1335l-833 -872z"/>
  <path class="fil2" d="M4572 7956c502,43 1605,-78 2090,-1138 0,0 -1711,1282 -4268,-522 0,0 92,1481 2178,1660z"/>
  <path class="fil3" d="M5538 8502c0,0 -1119,658 -3423,140 0,0 681,822 1491,830 0,0 1588,0 1932,-970z"/>
  <path class="fil4" d="M7393 4482c0,0 -2441,1142 -6690,-99 0,0 2331,1669 5654,1187 0,0 758,-261 1037,-1089z"/>
  <path class="fil5" d="M8265 328c0,0 -1603,5283 -7563,4055 0,0 2501,1861 5472,302 780,-409 2161,-1823 2091,-4358z"/>
  <path class="fil6" d="M7393 4482c0,0 -1518,2173 -5479,957 0,0 1447,1476 3624,1050 614,-120 1671,-674 1855,-2006z"/>
  <path class="fil5" d="M4895 2706c-232,-393 -680,-604 -1112,-786 0,0 -463,847 -332,1329 68,251 429,504 882,513 139,0 275,-86 275,-86 172,-118 495,-620 287,-970z"/>
  <path class="fil4" d="M9295 3407c250,0 468,64 648,191 164,134 256,321 272,566l-272 0c-79,0 -142,-38 -193,-111 -85,-175 -234,-261 -442,-261 -370,0 -559,235 -563,710 -3,474 190,729 584,757 297,0 471,-200 518,-461l-259 0c-123,0 -221,-98 -221,-223l0 -137 876 0 0 1168 -111 0c-104,0 -205,-70 -215,-168l-19 -105c-152,197 -307,305 -616,305 -616,0 -989,-480 -989,-1114 -10,-640 367,-1142 1002,-1117z"/>
  <path class="fil4" d="M10464 3674c0,-150 73,-229 221,-232l1334 0 0 375 -1122 0 0 465 838 0 0 143c3,150 -73,223 -228,223l-610 0 0 560 1122 0 0 397 -1555 0 0 -1931z"/>
  <path class="fil4" d="M13500 5605l-6 -496c-11,-230 -64,-344 -323,-344l-498 0 0 840 -439 0 0 -1931c0,-124 98,-232 221,-232l815 0c446,0 692,172 692,617 0,274 -117,452 -322,509 92,32 284,119 307,463 16,241 16,574 16,574l-463 0zm-283 -1788l0 0 -544 0 0 570 518 0c209,0 326,-76 326,-286 0,-197 -104,-283 -300,-283z"/>
  <path class="fil4" d="M14431 3442l427 0 433 1648 420 -1648 654 0 0 2164 -414 0 0 -1747 -439 1747 -449 0 -439 -1747 0 1747 -414 0 0 -1931c0,-124 98,-232 221,-232z"/>
  <path class="fil4" d="M17791 3442l771 2164 -465 0 -142 -442 -831 0 -142 442 -471 0 717 -2020c32,-95 101,-143 209,-143l354 0zm-550 1355l0 0 591 0 -297 -920 -294 920z"/>
  <path class="fil4" d="M19857 4993c0,-105 -63,-175 -196,-213 -127,-38 -272,-76 -427,-118 -420,-108 -629,-306 -629,-592 10,-455 278,-678 809,-675 506,0 768,223 793,672l-247 0c-92,0 -155,-45 -196,-127 -73,-124 -202,-185 -389,-185 -228,3 -341,89 -351,255 0,137 136,235 417,299 161,38 332,86 512,149 240,83 354,261 341,535 -25,423 -310,633 -853,633 -569,0 -857,-239 -869,-710l427 0c16,229 161,344 442,344 281,0 417,-89 414,-267z"/>
  <path class="fil4" d="M8979 6965c-17,27 -46,51 -87,73 -41,22 -95,33 -161,33 -81,0 -149,-27 -202,-82 -53,-55 -80,-125 -80,-212l0 -147c0,-87 26,-157 77,-212 51,-55 117,-82 198,-82 78,0 140,21 186,64 45,42 67,96 66,162l-1 3 -91 0c0,-44 -14,-80 -42,-109 -28,-29 -67,-43 -118,-43 -54,0 -97,20 -130,61 -33,41 -49,93 -49,156l0 148c0,63 17,116 52,157 35,41 79,62 133,62 42,0 75,-6 99,-16 24,-11 42,-24 55,-39l0 -161 -160 0 0 -76 255 0 0 261z"/>
  <path class="fil4" d="M9347 7071c-75,0 -134,-24 -176,-73 -42,-49 -63,-113 -63,-192l0 -21c0,-77 22,-139 65,-189 43,-50 96,-75 159,-75 70,0 122,22 157,66 35,44 53,103 53,176l0 51 -335 0 -1 3c0,53 12,96 35,130 23,33 59,50 106,50 32,0 60,-4 85,-14 24,-10 45,-22 62,-39l37 63c-19,18 -43,34 -74,46 -31,13 -68,19 -111,19zm-15 -475l0 0c-33,0 -61,13 -82,39 -22,26 -35,59 -40,100l1 2 236 0 0 -8c0,-39 -10,-71 -28,-96 -19,-25 -48,-38 -87,-38z"/>
  <path class="fil4" d="M9896 6615l-49 -3c-25,0 -46,6 -64,18 -17,12 -31,29 -40,51l0 379 -95 0 0 -531 85 0 9 78c15,-28 33,-49 55,-64 22,-15 47,-23 75,-23 7,0 14,1 20,2 6,1 12,2 16,3l-13 90z"/>
  <path class="fil4" d="M10317 7061c-3,-16 -6,-30 -7,-42 -2,-12 -3,-25 -3,-37 -18,26 -41,47 -69,64 -28,17 -59,26 -92,26 -54,0 -96,-14 -124,-42 -29,-28 -43,-67 -43,-117 0,-51 20,-90 61,-119 41,-29 95,-43 165,-43l103 0 0 -53c0,-31 -9,-55 -28,-74 -19,-18 -45,-27 -79,-27 -31,0 -56,8 -75,24 -19,16 -29,35 -29,56l-90 1 -1 -3c-2,-39 15,-74 53,-106 38,-32 87,-48 147,-48 59,0 107,15 143,46 36,31 54,75 54,132l0 256c0,19 1,37 3,55 2,18 5,35 11,52l-98 0zm-158 -71l0 0c35,0 66,-9 93,-27 28,-18 46,-39 54,-62l0 -86 -107 0c-38,0 -69,10 -92,29 -23,20 -35,43 -35,69 0,24 7,42 22,56 15,14 36,21 64,21z"/>
  <polygon class="fil4" points="10684,6816 10636,6816 10636,7061 10540,7061 10540,6295 10636,6295 10636,6739 10683,6739 10841,6530 10955,6530 10765,6775 10971,7061 10858,7061 "/>
  <path class="fil4" d="M11369 7061c-3,-16 -6,-30 -8,-42 -2,-12 -3,-25 -3,-37 -18,26 -41,47 -69,64 -28,17 -59,26 -92,26 -55,0 -96,-14 -125,-42 -28,-28 -43,-67 -43,-117 0,-51 20,-90 60,-119 41,-29 95,-43 165,-43l104 0 0 -53c0,-31 -9,-55 -28,-74 -19,-18 -45,-27 -79,-27 -31,0 -56,8 -75,24 -19,16 -28,35 -28,56l-90 1 -1 -3c-2,-39 16,-74 53,-106 38,-32 87,-48 147,-48 59,0 107,15 143,46 36,31 54,75 54,132l0 256c0,19 1,37 3,55 2,18 5,35 11,52l-98 0zm-158 -71l0 0c34,0 66,-9 93,-27 28,-18 46,-39 54,-62l0 -86 -107 0c-38,0 -69,10 -92,29 -23,20 -35,43 -35,69 0,24 7,42 22,56 14,14 36,21 64,21z"/>
  <path class="fil4" d="M11677 6530l7 79c17,-28 39,-50 65,-66 26,-16 56,-23 90,-23 56,0 100,17 131,50 31,34 46,85 46,155l0 335 -95 0 0 -333c0,-47 -9,-80 -28,-100 -18,-20 -46,-29 -83,-29 -29,0 -54,6 -75,18 -21,12 -37,29 -49,50l0 394 -95 0 0 -531 85 0z"/>
  <polygon class="fil4" points="12763,6927 12766,6927 12990,6346 13109,6346 13109,7061 13014,7061 13014,6525 13011,6525 12798,7061 12731,7061 12512,6507 12509,6508 12509,7061 12414,7061 12414,6346 12539,6346 "/>
  <path class="fil4" d="M13582 7061c-3,-16 -6,-30 -8,-42 -2,-12 -3,-25 -3,-37 -18,26 -41,47 -69,64 -29,17 -59,26 -92,26 -55,0 -96,-14 -125,-42 -29,-28 -43,-67 -43,-117 0,-51 20,-90 61,-119 40,-29 95,-43 165,-43l104 0 0 -53c0,-31 -9,-55 -28,-74 -19,-18 -45,-27 -79,-27 -31,0 -56,8 -75,24 -19,16 -28,35 -28,56l-90 1 -1 -3c-3,-39 15,-74 53,-106 38,-32 87,-48 147,-48 59,0 107,15 143,46 36,31 54,75 54,132l0 256c0,19 1,37 3,55 2,18 5,35 11,52l-98 0zm-158 -71l0 0c34,0 66,-9 93,-27 28,-18 46,-39 54,-62l0 -86 -107 0c-38,0 -69,10 -92,29 -23,20 -35,43 -35,69 0,24 7,42 22,56 14,14 36,21 64,21z"/>
  <path class="fil4" d="M14109 6918c0,-21 -8,-39 -24,-52 -16,-13 -46,-25 -91,-35 -62,-13 -109,-32 -142,-56 -33,-24 -50,-57 -50,-97 0,-43 18,-80 54,-111 36,-31 83,-46 141,-46 59,0 107,16 144,49 37,33 54,71 53,114l-1 3 -91 0c0,-23 -10,-44 -30,-62 -20,-19 -45,-28 -75,-28 -33,0 -58,8 -75,23 -17,15 -25,34 -25,55 0,21 7,37 22,49 14,12 44,22 89,31 64,14 113,33 146,59 33,25 50,58 50,99 0,47 -19,86 -57,115 -37,30 -87,45 -147,45 -67,0 -119,-17 -158,-51 -38,-34 -57,-75 -55,-120l1 -3 91 0c2,34 14,60 38,75 24,16 51,24 83,24 34,0 60,-7 80,-22 19,-15 29,-33 29,-56z"/>
  <path class="fil4" d="M14483 6864l17 67 3 0 129 -401 106 0 -220 612c-13,36 -32,67 -57,93 -24,26 -58,40 -100,40 -8,0 -17,-1 -29,-3 -12,-2 -21,-3 -28,-5l10 -76c-2,0 4,0 17,1 13,1 22,2 26,2 20,0 37,-9 50,-28 13,-18 24,-39 33,-61l23 -55 -194 -520 106 0 111 334z"/>
  <path class="fil4" d="M15135 7061c-3,-16 -6,-30 -7,-42 -2,-12 -3,-25 -3,-37 -18,26 -41,47 -69,64 -29,17 -59,26 -92,26 -55,0 -96,-14 -124,-42 -29,-28 -43,-67 -43,-117 0,-51 20,-90 61,-119 41,-29 95,-43 165,-43l104 0 0 -53c0,-31 -9,-55 -28,-74 -19,-18 -45,-27 -79,-27 -31,0 -56,8 -75,24 -19,16 -29,35 -29,56l-90 1 -1 -3c-2,-39 15,-74 53,-106 38,-32 87,-48 147,-48 59,0 107,15 143,46 36,31 54,75 54,132l0 256c0,19 1,37 3,55 2,18 5,35 11,52l-98 0zm-158 -71l0 0c35,0 66,-9 93,-27 28,-18 46,-39 54,-62l0 -86 -107 0c-39,0 -69,10 -92,29 -23,20 -35,43 -35,69 0,24 7,42 22,56 15,14 36,21 64,21z"/>
  <path class="fil4" d="M15605 6615l-49 -3c-25,0 -47,6 -64,18 -17,12 -31,29 -40,51l0 379 -95 0 0 -531 85 0 9 78c15,-28 33,-49 55,-64 22,-15 47,-23 75,-23 7,0 14,1 20,2 6,1 12,2 16,3l-13 90z"/>
  <path class="fil4" d="M16026 7061c-3,-16 -6,-30 -8,-42 -2,-12 -3,-25 -3,-37 -18,26 -41,47 -69,64 -29,17 -59,26 -92,26 -54,0 -96,-14 -125,-42 -29,-28 -43,-67 -43,-117 0,-51 20,-90 60,-119 41,-29 95,-43 165,-43l104 0 0 -53c0,-31 -9,-55 -28,-74 -19,-18 -45,-27 -79,-27 -31,0 -56,8 -75,24 -19,16 -28,35 -28,56l-91 1 -1 -3c-3,-39 15,-74 53,-106 38,-32 87,-48 147,-48 59,0 107,15 143,46 36,31 54,75 54,132l0 256c0,19 1,37 3,55 2,18 6,35 11,52l-98 0zm-158 -71l0 0c34,0 66,-9 93,-27 28,-18 46,-39 54,-62l0 -86 -107 0c-38,0 -69,10 -92,29 -23,20 -35,43 -35,69 0,24 8,42 22,56 14,14 36,21 64,21z"/>
  <polygon class="fil4" points="16393,6816 16344,6816 16344,7061 16249,7061 16249,6295 16344,6295 16344,6739 16392,6739 16549,6530 16664,6530 16474,6775 16680,7061 16567,7061 "/>
  <path class="fil4" d="M17078 7061c-3,-16 -6,-30 -8,-42 -2,-12 -3,-25 -3,-37 -18,26 -41,47 -69,64 -29,17 -59,26 -92,26 -54,0 -96,-14 -124,-42 -29,-28 -43,-67 -43,-117 0,-51 20,-90 61,-119 40,-29 95,-43 165,-43l104 0 0 -53c0,-31 -9,-55 -28,-74 -19,-18 -45,-27 -79,-27 -31,0 -56,8 -75,24 -19,16 -29,35 -29,56l-90 1 -1 -3c-3,-39 16,-74 53,-106 38,-32 87,-48 147,-48 59,0 107,15 143,46 36,31 54,75 54,132l0 256c0,19 1,37 3,55 2,18 6,35 11,52l-98 0zm-158 -71l0 0c34,0 66,-9 93,-27 28,-18 46,-39 54,-62l0 -86 -107 0c-38,0 -69,10 -92,29 -23,20 -35,43 -35,69 0,24 7,42 22,56 14,14 36,21 64,21z"/>
  <path class="fil4" d="M17433 6402l0 128 99 0 0 72 -99 0 0 322c0,25 5,42 15,53 10,10 23,15 40,15 5,0 12,-1 18,-2 7,-1 12,-3 17,-5l13 66c-7,6 -18,11 -32,15 -14,4 -28,6 -41,6 -39,0 -70,-12 -93,-35 -23,-24 -34,-61 -34,-112l0 -322 -83 0 0 -72 83 0 0 -128 95 0z"/>
  <polygon class="fil4" points="9005,8082 8910,8082 8910,7766 8568,7766 8568,8082 8473,8082 8473,7367 8568,7367 8568,7690 8910,7690 8910,7367 9005,7367 "/>
  <path class="fil4" d="M9260 7415l-95 0 0 -99 95 0 0 99zm0 667l0 0 -95 0 0 -531 95 0 0 531z"/>
  <path class="fil4" d="M9384 7826c0,-86 18,-154 54,-207 36,-52 86,-78 151,-78 31,0 58,6 81,17 24,12 44,28 61,50l0 -292 95 0 0 766 -73 0 -15 -67c-17,26 -38,45 -63,58 -25,13 -54,19 -87,19 -64,0 -114,-23 -150,-70 -36,-47 -54,-109 -54,-185l0 -10zm95 10l0 0c0,54 11,97 32,129 22,32 55,48 101,48 28,0 52,-6 71,-20 19,-13 35,-31 47,-55l0 -248c-12,-22 -28,-39 -48,-52 -20,-13 -43,-19 -70,-19 -46,0 -80,19 -101,57 -22,38 -33,88 -33,149l0 10z"/>
  <path class="fil4" d="M10301 8003c-16,28 -38,50 -63,66 -26,15 -56,23 -89,23 -57,0 -102,-18 -133,-55 -32,-37 -48,-95 -48,-173l0 -313 95 0 0 314c0,57 8,95 25,117 17,21 42,32 77,32 34,0 62,-7 84,-21 22,-14 39,-33 50,-59l0 -383 95 0 0 531 -85 0 -6 -78z"/>
  <path class="fil4" d="M10977 7837c0,76 -18,138 -54,185 -36,47 -86,70 -149,70 -32,0 -61,-5 -85,-16 -24,-11 -45,-27 -62,-49l0 260 -95 0 0 -735 73 0 15 69c17,-25 38,-45 64,-58 25,-14 55,-20 89,-20 65,0 115,26 151,78 36,52 54,121 54,207l0 10zm-95 -10l0 0c0,-60 -12,-110 -35,-149 -23,-39 -58,-58 -103,-58 -27,0 -51,6 -70,19 -19,13 -35,30 -47,52l0 257c12,22 28,39 47,51 19,12 43,19 71,19 45,0 79,-17 103,-50 23,-33 35,-77 35,-130l0 -10z"/>
  <path class="fil4" d="M11729 7902c0,-32 -12,-59 -34,-81 -23,-22 -64,-40 -121,-56 -72,-18 -127,-44 -168,-80 -40,-35 -60,-79 -60,-132 0,-56 22,-102 65,-140 43,-37 100,-56 168,-56 74,0 133,21 177,64 44,43 65,93 64,149l-2 3 -91 0c0,-41 -14,-74 -42,-101 -28,-26 -64,-40 -107,-40 -44,0 -79,11 -102,33 -24,22 -36,51 -36,85 0,31 13,57 39,78 26,21 68,39 126,55 71,19 125,46 162,83 37,36 56,81 56,134 0,58 -22,104 -67,139 -44,35 -103,52 -175,52 -68,0 -128,-19 -180,-58 -52,-39 -77,-90 -75,-155l1 -3 91 0c0,45 17,79 51,104 33,24 71,37 113,37 45,0 81,-10 107,-31 26,-21 39,-49 39,-84z"/>
  <path class="fil4" d="M12162 8092c-75,0 -134,-24 -176,-73 -42,-49 -63,-113 -63,-192l0 -21c0,-76 22,-139 65,-189 43,-50 96,-75 159,-75 70,0 123,22 157,66 35,44 53,103 53,176l0 51 -335 0 -1 3c0,53 12,96 35,130 23,33 59,50 106,50 32,0 60,-5 85,-14 24,-9 45,-22 62,-39l37 63c-19,18 -43,34 -74,46 -31,13 -68,19 -111,19zm-15 -475l0 0c-33,0 -61,13 -82,39 -22,26 -35,59 -40,100l1 3 236 0 0 -8c0,-39 -9,-71 -28,-96 -19,-25 -48,-38 -87,-38z"/>
  <path class="fil4" d="M12559 7622c18,-26 40,-46 66,-60 26,-14 55,-21 87,-21 56,0 99,17 130,51 31,34 47,86 47,157l0 333 -95 0 0 -334c0,-44 -9,-76 -28,-97 -19,-21 -46,-31 -83,-31 -28,0 -53,6 -74,17 -21,11 -38,27 -51,47l0 398 -95 0 0 -766 95 0 0 306z"/>
  <path class="fil4" d="M13348 8082c-3,-16 -6,-30 -7,-42 -2,-12 -3,-25 -3,-37 -18,25 -41,47 -69,64 -29,17 -59,26 -92,26 -54,0 -96,-14 -125,-42 -29,-28 -43,-67 -43,-117 0,-51 20,-90 60,-119 41,-28 95,-43 165,-43l104 0 0 -52c0,-31 -9,-56 -28,-74 -19,-18 -45,-27 -79,-27 -31,0 -56,8 -75,24 -19,16 -29,35 -29,57l-90 1 -1 -3c-3,-39 15,-74 53,-106 38,-32 87,-48 147,-48 60,0 107,15 143,46 36,31 54,75 54,132l0 256c0,19 1,37 3,55 2,18 6,35 11,52l-98 0zm-158 -71l0 0c34,0 66,-9 93,-27 28,-18 46,-39 54,-62l0 -86 -107 0c-38,0 -69,10 -92,29 -23,20 -35,43 -35,69 0,24 7,42 22,56 14,14 36,21 64,21z"/>
  <path class="fil4" d="M13703 7423l0 128 99 0 0 72 -99 0 0 322c0,25 5,42 15,52 10,10 24,15 40,15 6,0 12,-1 18,-2 7,-1 12,-3 17,-5l13 66c-7,6 -18,11 -32,15 -14,4 -28,6 -41,6 -39,0 -69,-12 -92,-35 -23,-24 -34,-61 -34,-112l0 -322 -83 0 0 -72 83 0 0 -128 95 0z"/>
 </g>
</svg>
